<?xml version="1.0" encoding="utf-8"?>
<!-- Generator: Adobe Illustrator 24.0.0, SVG Export Plug-In . SVG Version: 6.00 Build 0)  -->
<svg version="1.1" id="Capa_1" xmlns="http://www.w3.org/2000/svg" xmlns:xlink="http://www.w3.org/1999/xlink" x="0px" y="0px"
	 viewBox="0 0 600 600" style="enable-background:new 0 0 600 600;" xml:space="preserve">
<style type="text/css">
	.st0{fill:#CED2D6;}
	.st1{fill:#FFE2CF;}
	.st2{fill:#333333;}
	.st3{fill:#FFFFFF;}
	.st4{clip-path:url(#SVGID_2_);fill:#FFD5BD;}
	.st5{fill:#5D9E9B;}
	.st6{fill:#5D9D9A;}
	.st7{fill:#212121;}
	.st8{fill:#FFC5B8;}
	.st9{fill:#FFFFFF;stroke:#222222;stroke-width:5.5331;stroke-miterlimit:10;}
	.st10{fill:#222222;}
	.st11{fill:#EAA29B;}
	.st12{fill:#F4B6AB;}
	.st13{fill:#FFEBC7;}
	.st14{fill:#5D4037;}
	.st15{fill:none;stroke:#5D4037;stroke-width:16.2558;stroke-linecap:round;stroke-miterlimit:10;}
	.st16{fill:#EAA42C;}
	.st17{fill:#DFA26F;}
	.st18{fill:#E4E6E8;}
	.st19{fill:#FFD56C;}
	.st20{fill:#DDAD7A;}
	.st21{fill:#F3A94A;}
	.st22{fill:#FFFFFF;stroke:#222222;stroke-width:2.3249;stroke-miterlimit:10;}
	.st23{fill:none;stroke:#5D4037;stroke-width:6.8303;stroke-linecap:round;stroke-miterlimit:10;}
	.st24{fill:#FFCFCF;}
	.st25{fill:none;stroke:#212121;stroke-width:5.2043;stroke-miterlimit:10;}
	.st26{fill:none;stroke:#212121;stroke-width:5.168;stroke-miterlimit:10;}
	.st27{fill:#FC8775;}
	.st28{clip-path:url(#SVGID_4_);fill:#FFD5BD;}
	.st29{fill:#FFEACC;}
	.st30{fill:#FFD86C;}
	.st31{fill:#77554D;}
	.st32{fill:#F9C953;}
	.st33{fill:#EFEFEF;}
	.st34{fill:#F7AB3E;}
	.st35{fill:#FFD0B6;}
	.st36{fill:none;stroke:#F7AB3E;stroke-width:11.5338;stroke-miterlimit:10;}
	.st37{fill:#D3965F;}
	.st38{fill:#7F5D57;}
	.st39{fill:#FFD6C2;}
	.st40{fill:none;stroke:#333333;stroke-width:6;stroke-miterlimit:10;}
	.st41{enable-background:new    ;}
	.st42{clip-path:url(#SVGID_6_);}
	.st43{fill:none;stroke:#5D4037;stroke-width:30.501;stroke-linecap:round;stroke-miterlimit:10;}
	.st44{fill:none;stroke:#5D4037;stroke-width:12.0648;stroke-linecap:round;stroke-miterlimit:10;}
	.st45{clip-path:url(#SVGID_8_);}
	.st46{fill:#EAEAEA;}
</style>
<g>
	<g>
		<g>
			<path class="st0" d="M495,236.5c-26.4-67.8-73.2-130.2-187.7-130.2c-186.9,0-281.5,74-279.6,193.6
				c1.8,110.1,106.9,216.4,336.6,189.5C443.2,480.2,558.6,399.6,495,236.5z"/>
		</g>
	</g>
	<g>
		<g>
			<path class="st1" d="M557.6,308.2l-130.5-3.7l0-0.1c0,0-6-0.4-5.9-6.7c0-3.5,2.9-5,5.2-5.6l110.7-12.2
				c7.8-1.2,12.2-9.5,11.7-17.5c-0.5-8.5-9.6-15.8-18.1-15.2l-186.6,3.3l0,0c0,0,0,0,0,0l-1.7,0.1c-2.5,0-7.1-0.4-9-3
				c-3.1-4.2,2.9-7.7,2.9-7.7l56.1-28.2c7.4-3.8,10.9-12.7,7.8-20.6c-3.3-8.4-12.9-12.5-21.3-9.2c0,0-85.5,31.8-128.6,48.3
				L46.8,214.2c-13.2,24.9-19.7,53.7-19.1,85.7c0.8,51.8,24.5,102.7,73.2,139.3l146.3-1.2c76.9,1,126.3,5,133,4.8l30,3.4
				c0.3,0,0.5,0,0.7,0l84.1,6.3c7.1,0.8,13-5.7,14.6-12.8c1.8-7.7-3.2-14.9-10.9-16.7l-77.7-11.1v0c0,0-5.8-1.4-5-7.5
				c0.6-4.8,5-4.6,5.1-4.6l125.1,5.5c8.1,0.3,15.4-5.6,16.4-13.8c1.1-8.7-5-16.7-13.7-17.8l-124.8-16.2l-2.5-0.3
				c-1.7-0.5-3.6-1.8-3.6-5c0-4.1,3.4-5.4,5.1-5.9l134.9-5.1c7.9-0.8,14.3-7.9,14.2-16.1C572.3,316.6,566.1,308.1,557.6,308.2z"/>
		</g>
	</g>
	<g>
		<g>
			<polygon class="st31" points="237.2,388.9 213.5,389.8 211.3,332.5 234.9,331.7 			"/>
		</g>
	</g>
	<g>
		<g>
			<g>
				<path class="st5" d="M310.5,328.5c0,0,20.5-27.6,8.8-49c0,0,21.7-5.6,19.6-38.5c0,0-2.2-28.7-23.8-34.9
					c8.3-22.5-8.3-40.4-18-46.6c-31.6-20.2-49.7-2.9-49.7-2.9c-15.5-33.7-56-24.6-56-24.6c-39,6.8-39.6,42.7-39.6,42.7
					c-35.6-3.8-47.1,35.6-47.1,35.6c-11.2,29.6,12.6,51.6,12.6,51.6s-15.2,16-2.2,49.6c13.6,35.1,53.9,30.2,53.9,30.2
					s11.5,24.4,51.1,21.6c0,0,34.5-0.3,40-17.9C260.2,345.4,283.5,357.5,310.5,328.5z"/>
			</g>
		</g>
	</g>
	<g>
		<g>
			<circle class="st16" cx="156.5" cy="301.7" r="13.9"/>
		</g>
	</g>
	<g>
		<g>
			<circle class="st16" cx="197.4" cy="176" r="13.9"/>
		</g>
	</g>
	<g>
		<g>
			<circle class="st16" cx="269.6" cy="191" r="13.9"/>
		</g>
	</g>
	<g>
		<g>
			<circle class="st16" cx="146.8" cy="227.8" r="13.9"/>
		</g>
	</g>
	<g>
		<g>
			<circle class="st16" cx="220.1" cy="249.2" r="13.9"/>
		</g>
	</g>
	<g>
		<g>
			<circle class="st16" cx="225.7" cy="322.4" r="13.9"/>
		</g>
	</g>
	<g>
		<g>
			<circle class="st16" cx="293.9" cy="249.2" r="13.9"/>
		</g>
	</g>
	<g>
		<g>
			<g>
				<path class="st10" d="M268.9,370.1c0.2,1.7,0.4,3.5,0.5,5.2c0.3,2.8,0.7,5.5,1,8.3c0.4,2.8,0.8,5.5,1.2,8.3
					c0.2,1.3,1,2.3,1.8,2.4c0.1,0,0.3,0,0.4,0c0.9-0.3,1.5-1.6,1.4-3l0,0c-0.2-2.7-0.4-5.4-0.6-8.1c-0.2-2.7-0.3-5.4-0.4-8.1
					c0-1.3-0.1-2.6-0.1-3.9c-0.5,0-1,0-1.5-0.1C271.5,370.9,270.2,370.6,268.9,370.1"/>
			</g>
		</g>
		<g>
			<g>
				<path class="st10" d="M291.5,361.8c-0.2,1.7-1.1,11.9-1.3,13.6c-0.3,2.8-0.7,5.5-1,8.3c-0.4,2.8-0.8,5.5-1.2,8.3
					c-0.2,1.3-1,2.3-1.8,2.4c-0.1,0-0.3,0-0.4,0c-0.9-0.3-1.5-1.6-1.4-3l0,0c0.2-2.7,0.4-5.4,0.6-8.1c0.2-2.7,0.3-5.4,0.4-8.1
					c0-1.3,0.4-6.3,0.5-7.6c0.5,0,1.3-3.5,1.8-3.5c1.4-0.1,2.7-0.4,3.9-0.8"/>
			</g>
		</g>
		<g>
			<g>
				<path class="st10" d="M328.5,370.1c0.2,1.7,0.4,3.5,0.5,5.2c0.3,2.8,0.7,5.5,1,8.3c0.4,2.8,0.8,5.5,1.2,8.3
					c0.2,1.3,1,2.3,1.8,2.4c0.1,0,0.3,0,0.4,0c0.9-0.3,1.5-1.6,1.4-3l0,0c-0.2-2.7-0.4-5.4-0.6-8.1c-0.2-2.7-0.3-5.4-0.4-8.1
					c0-1.3-0.2-5.5-0.2-6.8c-0.5,0-0.9,2.9-1.4,2.8C331,370.9,329.7,370.6,328.5,370.1"/>
			</g>
		</g>
		<g>
			<g>
				<path class="st10" d="M351,361.8c-0.2,1.7-1.1,11.9-1.3,13.6c-0.3,2.8-0.7,5.5-1,8.3c-0.4,2.8-0.8,5.5-1.2,8.3
					c-0.2,1.3-1,2.3-1.8,2.4c-0.1,0-0.3,0-0.4,0c-0.9-0.3-1.5-1.6-1.4-3l0,0c0.2-2.7,0.4-5.4,0.6-8.1c0.2-2.7,0.3-5.4,0.4-8.1
					c0-1.3,0.4-6.3,0.5-7.6c0.5,0,1.3-3.5,1.8-3.5c1.4-0.1,2.7-0.4,3.9-0.8"/>
			</g>
		</g>
		<g>
			<g>
				<path class="st3" d="M324.5,307.4c-1.6-2.7-3.2-7.3,2.3-9c2.8-0.9,7.2-0.9,11.7-0.6c8.4,0.5,17.2,2.3,17.2,2.3s8,3.4,5.4,9.6
					c0,0-0.2,0.3-0.7,0.7c0.6,0.4,1.2,0.9,2,1.3c3.7,2.1,5.1,4.5,5.3,6.7c0.3,2.8-1.2,3.4-2.4,3.3c-0.3,0-0.7-0.1-0.9-0.2
					c-3.2-1.4-5.8-5.6-7.4-8.9l1.5,20.2c0,0,0.8,12.9-12.6,14.1c0,0-1,0.1-2.5,0c-5.4-0.4-17.6-2.9-17.4-18.9l1.4-17.2
					c-0.2-0.1-0.3-0.2-0.5-0.4c-1.5,3.2-4,7.5-7.3,8.5c-0.3,0.1-0.6,0.1-1,0.1c-1.2-0.1-2.6-0.9-2.5-3.6c0.2-2.2,1.5-4.4,5.1-6.1
					C322.8,308.7,323.8,308,324.5,307.4 M329,278.4c-0.1,0-0.3,0-0.4,0c0,0,0,0-0.1,0c-1.7-0.1-18.3-0.9-24,11.2c0,0-7.2-7.3-18.6-8
					c-2.5-0.2-5.1,0-7.9,0.6c-5.9,1.2-16,5.1-16.6,17.4c0,0-13.4,2.4-15.9,18.8c-0.9,6.2,0.2,21.2,9.4,26.5c0,0-1.8,4.5-1.1,10
					c0.6,4.7,3,10,10,13.8c1.4,0.8,3.3,1.5,5.3,2c1.7,0.4,3.6,0.7,5.6,0.9c0.7,0,1.4,0.1,2.1,0.1c3.1,0,6.3-0.5,9.1-1.8
					c2.9-1.3,5.3-3.5,6.8-6.7c0,0,0.3,1.4,1.3,3.3c2.2,4,7.6,10.3,20.5,11.1c0.1,0,0.2,0,0.3,0c0,0,4.5,0.3,9.5-1.2
					c2.5-0.7,5-1.9,7.2-3.8c1.9-1.6,3.4-3.7,4.4-6.5c0,0,1.8,1.3,4.6,2.6c2.2,1,5,2.1,8.1,2.7c0.9,0.2,1.8,0.3,2.8,0.3
					c4.9,0.3,10.2-0.9,14.8-5.6c0,0,1.2-1.3,2.6-3.7c2.7-4.9,5.8-14.1-1.2-25c0,0,14.9-8.9,8.2-27.1c0,0-6-14.9-18.9-15.8
					c-1.1-0.1-2.4,0-3.6,0.1C353.3,294.6,352.3,280,329,278.4"/>
			</g>
		</g>
		<g>
			<g>
				<path class="st1" d="M342.6,330.7C342.7,330.7,342.7,330.7,342.6,330.7c1.2,0.1,2.1-1.1,2.1-1.1c0.2-0.2,0.5-0.4,0.8-0.3
					c0.2,0,0.4,0.1,0.6,0.2c0.4,0.4,0.5,1,0.2,1.4c-0.1,0.1-1.2,1.5-2.9,1.8l0.1,3.3c0,0.4-0.3,0.6-0.6,0.6c0,0,0,0,0,0
					c-0.3,0-0.6-0.3-0.6-0.7l-0.1-3.3c-1-0.2-2-0.9-2.9-2.1c-0.3-0.4-0.3-1.1,0.1-1.4c0.2-0.1,0.4-0.2,0.6-0.2
					c0.3,0,0.5,0.2,0.7,0.4C341.3,330.2,342,330.7,342.6,330.7 M334.5,320.2c-1.2-0.1-2.2-1.2-2.2-2.4c0-1.3,1-2.2,2.2-2.2
					c0,0,0,0,0,0c1.2,0.1,2.2,1.2,2.2,2.4C336.7,319.3,335.7,320.2,334.5,320.2C334.5,320.2,334.5,320.2,334.5,320.2 M350.7,321.1
					c-1.2-0.1-2.2-1.2-2.2-2.4c0-1.3,1-2.2,2.2-2.2c0,0,0,0,0,0c1.2,0.1,2.2,1.2,2.2,2.4C352.9,320.2,352,321.2,350.7,321.1
					C350.7,321.1,350.7,321.1,350.7,321.1 M348.7,309c0,0-1.3,3.8-5.7,3.5c-0.2,0-0.4,0-0.6-0.1c-4.8-0.7-5.1-4.1-5.1-4.1
					s-2.9,3.9-6.7,3.6c-1-0.1-2-0.4-3.1-1.1L326,328c-0.2,16,12,18.5,17.4,18.9c1.5,0.1,2.5,0,2.5,0c13.5-1.2,12.6-14.1,12.6-14.1
					l-1.5-20.2c0,0,0,0,0,0c-0.8,0.3-1.8,0.5-2.7,0.5C352.5,313,350.5,311.9,348.7,309"/>
			</g>
		</g>
		<g>
			<g>
				<path class="st10" d="M350.7,316.6C350.7,316.6,350.7,316.6,350.7,316.6c-1.2-0.1-2.2,0.9-2.2,2.2c0,1.3,1,2.3,2.2,2.4
					c0,0,0,0,0,0c1.2,0.1,2.2-0.9,2.2-2.2C352.9,317.7,351.9,316.6,350.7,316.6"/>
			</g>
		</g>
		<g>
			<g>
				<path class="st10" d="M334.4,315.6C334.4,315.6,334.4,315.6,334.4,315.6c-1.2-0.1-2.2,0.9-2.2,2.2c0,1.3,1,2.3,2.2,2.4
					c0,0,0,0,0,0c1.2,0.1,2.2-0.9,2.2-2.2C336.6,316.8,335.7,315.7,334.4,315.6"/>
			</g>
		</g>
		<g>
			<g>
				<path class="st11" d="M345.5,329.2c-0.3,0-0.6,0.1-0.8,0.3c0,0-0.9,1.2-2.1,1.1c0,0,0,0,0,0c-0.7,0-1.3-0.5-2-1.4
					c-0.2-0.2-0.5-0.4-0.7-0.4c-0.2,0-0.4,0-0.6,0.2c-0.4,0.3-0.4,0.9-0.1,1.4c0.9,1.2,1.9,1.9,2.9,2.1l0-0.9c0-0.4,0.3-0.6,0.6-0.6
					c0,0,0,0,0,0c0.3,0,0.6,0.3,0.6,0.7l0,0.9c1.7-0.2,2.9-1.7,2.9-1.8c0.3-0.4,0.2-1-0.2-1.4C345.9,329.3,345.7,329.3,345.5,329.2"
					/>
			</g>
		</g>
		<g>
			<g>
				<path class="st11" d="M342.7,331C342.7,331,342.7,331,342.7,331c-0.4,0-0.6,0.3-0.6,0.6l0,0.9l0.1,3.3c0,0.4,0.3,0.7,0.6,0.7
					c0,0,0,0,0,0c0.3,0,0.6-0.3,0.6-0.6l-0.1-3.3l0-0.9C343.4,331.4,343.1,331.1,342.7,331"/>
			</g>
		</g>
		<g>
			<g>
				<path class="st12" d="M324.5,307.4c-0.7,0.6-1.7,1.3-3.2,2c-3.6,1.7-5,3.9-5.1,6.1c-0.2,2.7,1.3,3.5,2.5,3.6c0.4,0,0.7,0,1-0.1
					c3.3-1,5.9-5.4,7.3-8.5c-0.3-0.2-0.6-0.5-1-0.9C326,309.6,325.3,308.7,324.5,307.4"/>
			</g>
		</g>
		<g>
			<g>
				<path class="st12" d="M360.4,310.4c-0.7,0.7-1.9,1.6-3.3,2.2c0,0,0,0,0,0c1.6,3.3,4.2,7.6,7.4,8.9c0.3,0.1,0.6,0.2,0.9,0.2
					c1.2,0.1,2.7-0.6,2.4-3.3c-0.2-2.2-1.6-4.6-5.3-6.7C361.6,311.3,361,310.9,360.4,310.4"/>
			</g>
		</g>
		<g>
			<g>
				<path class="st3" d="M338.5,297.8c-4.5-0.3-8.9-0.2-11.7,0.6c-5.5,1.7-3.8,6.3-2.3,9c0.7,1.3,1.5,2.2,1.5,2.2
					c0.3,0.3,0.7,0.6,1,0.9c0.2,0.1,0.3,0.2,0.5,0.4c1.1,0.7,2.1,1.1,3.1,1.1c3.9,0.3,6.7-3.6,6.7-3.6s0.3,3.4,5.1,4.1
					c0.2,0,0.4,0,0.6,0.1c4.4,0.3,5.7-3.5,5.7-3.5c1.8,2.9,3.8,4,5.6,4.1c1,0.1,1.9-0.1,2.7-0.5c1.5-0.6,2.6-1.6,3.3-2.2
					c0.4-0.4,0.7-0.7,0.7-0.7c2.6-6.2-5.4-9.6-5.4-9.6S346.9,298.3,338.5,297.8"/>
			</g>
		</g>
	</g>
</g>
</svg>
