<?xml version="1.0" encoding="utf-8"?>
<!-- Generator: Adobe Illustrator 24.0.0, SVG Export Plug-In . SVG Version: 6.00 Build 0)  -->
<svg version="1.1" id="Capa_1" xmlns="http://www.w3.org/2000/svg" xmlns:xlink="http://www.w3.org/1999/xlink" x="0px" y="0px"
	 viewBox="0 0 600 600" style="enable-background:new 0 0 600 600;" xml:space="preserve">
<style type="text/css">
	.st0{fill:#CED2D6;}
	.st1{fill:#FFFFFF;}
	.st2{clip-path:url(#SVGID_2_);fill:#FFD5BD;}
	.st3{fill:#EAA42C;}
	.st4{fill:#5D9E9B;}
	.st5{fill:#FFE2CF;}
	.st6{fill:#5D9D9A;}
	.st7{fill:#212121;}
	.st8{fill:#FFC5B8;}
	.st9{fill:#FFFFFF;stroke:#222222;stroke-width:5.5331;stroke-miterlimit:10;}
	.st10{fill:#222222;}
	.st11{fill:#EAA29B;}
	.st12{fill:#F4B6AB;}
	.st13{fill:#FFEBC7;}
	.st14{fill:#5D4037;}
	.st15{fill:none;stroke:#5D4037;stroke-width:16.2558;stroke-linecap:round;stroke-miterlimit:10;}
	.st16{fill:#DFA26F;}
	.st17{fill:#E4E6E8;}
	.st18{fill:#FFD56C;}
	.st19{fill:#F3A94A;}
	.st20{fill:#FFFFFF;stroke:#222222;stroke-width:2.3249;stroke-miterlimit:10;}
	.st21{fill:none;stroke:#5D4037;stroke-width:6.8303;stroke-linecap:round;stroke-miterlimit:10;}
	.st22{fill:#FFCFCF;}
	.st23{fill:none;stroke:#212121;stroke-width:5.2043;stroke-miterlimit:10;}
	.st24{fill:none;stroke:#212121;stroke-width:5.168;stroke-miterlimit:10;}
	.st25{fill:#333333;}
	.st26{fill:#FC8775;}
	.st27{clip-path:url(#SVGID_4_);fill:#FFD5BD;}
	.st28{fill:#FFEACC;}
	.st29{fill:#FFD86C;}
	.st30{fill:#77554D;}
	.st31{fill:#F9C953;}
	.st32{fill:#EFEFEF;}
	.st33{fill:#F7AB3E;}
	.st34{fill:#FFD0B6;}
	.st35{fill:none;stroke:#F7AB3E;stroke-width:11.5338;stroke-miterlimit:10;}
	.st36{fill:#DDAD7A;}
	.st37{fill:#D3965F;}
	.st38{fill:#7F5D57;}
	.st39{fill:#FFD6C2;}
	.st40{fill:none;stroke:#333333;stroke-width:4.7987;stroke-miterlimit:10;}
	.st41{enable-background:new    ;}
	.st42{clip-path:url(#SVGID_6_);}
	.st43{fill:none;stroke:#5D4037;stroke-width:30.501;stroke-linecap:round;stroke-miterlimit:10;}
	.st44{fill:none;stroke:#5D4037;stroke-width:12.0652;stroke-linecap:round;stroke-miterlimit:10;}
	.st45{clip-path:url(#SVGID_8_);}
	.st46{clip-path:url(#SVGID_10_);fill:none;stroke:#FFD86C;stroke-width:28.1136;stroke-miterlimit:10;}
	.st47{fill:#EAEAEA;}
</style>
<g>
	<path class="st0" d="M95.7,412.4c0,0-99.7-133.5,51.9-233.8c78.2-51.8,299.5-167.4,375.1,2.9c34.1,76.8,85.4,263.1-123.1,312.8
		C158.3,551.8,95.7,412.4,95.7,412.4z"/>
	<path class="st3" d="M551.9,346.3c-31.2-0.7-49.3-9.7-91.1-6.3c-90.6,7.3-97,21.4-168.1,54.1c-36.5,16.8-60.7,27-116.2,23.4
		c-26.2-1.7-54,7.5-70.2,12.1c26.2,35.3,105.8,109.5,293.3,64.7C510.8,467.8,543.6,407.7,551.9,346.3z"/>
	<path class="st5" d="M153.3,173.8c0,0,20.1,17.3,16.2,28.3c-0.8,2.2-4.3,8.3-4.3,8.3l-16.9-18.7L153.3,173.8z"/>
	<polygon class="st1" points="134.7,287.2 228.3,363.7 307.7,260.6 213.7,187 	"/>
	
		<ellipse transform="matrix(0.6098 -0.7926 0.7926 0.6098 -187.1129 270.6993)" class="st1" cx="181.3" cy="325.4" rx="24.6" ry="60.7"/>
	
		<ellipse transform="matrix(0.6013 -0.799 0.799 0.6013 -74.9023 297.7813)" class="st1" cx="260.9" cy="223.9" rx="22.2" ry="59.4"/>
	<polygon class="st1" points="256,317.8 347.7,333.1 352.8,325.4 269.1,296.6 	"/>
	
		<ellipse transform="matrix(0.4101 -0.912 0.912 0.4101 -93.6375 516.9937)" class="st1" cx="352.8" cy="330.9" rx="22.2" ry="7.1"/>
	<g>
		<path class="st1" d="M152.6,279.7c-0.9-0.7-1.7-1.3-2.5-2.1c-0.9-0.8-1.4-1.8-2.3-2.7c-1.5-1.7-3.1-3.3-4.4-5.1
			c-2.7-3.5-4.7-7.5-6.2-11.6c-3.2-8.6-3.9-17.9-1.5-26.7c2.4-9.1,7.6-17.2,14.3-23.8c6.9-6.7,15.9-12.4,25.4-14.5
			c11.8-2.5,21.3,6.4,30,13.4c2.1,1.7,5.1,2.1,7.2,0c1.9-1.9,2-5.3,0-7.2c-8.8-8.3-20.2-16.8-32.8-16.7c-6.6,0.1-13,2.5-18.8,5.5
			c-5,2.6-9.7,5.9-14,9.6c-16.8,14.5-25.6,37.4-18.9,59.1c1.8,5.8,4.8,11.1,8.6,15.9c1.8,2.2,3.8,4.1,6.1,5.9c2.3,1.8,5.3,2.9,7.9,4
			C152.4,283.4,154,280.8,152.6,279.7L152.6,279.7z"/>
	</g>
	<path class="st5" d="M92.3,111.4c16.4,19.4,64,65.5,64,65.5s-8.3,9.4-5.6,12.6c2.7,3.3,22.2,22.7,22.2,22.7
		c5.8,5.6,3.6,8.9,3.6,8.9c-2.8,3.9-8.3,0.7-8.3,0.7c6.3,6.1,3.5,10.6,3.5,10.6c-3.9,5.2-12.1-0.7-12.1-0.7
		c6.6,7.2,3.5,11.9,3.5,11.9c-3.9,4.4-11.4-1.2-11.4-1.2c4.7,5.7,2.2,7.8,2.2,7.8c-3.8,3.3-10.6-2.2-10.6-2.2
		c-17.5-10.3-97.7-78.3-97.7-78.3S50.6,138.5,92.3,111.4z"/>
	<g>
		<path class="st7" d="M153.6,242.7c-3.7-3.8-8.1-7-12-10.5c-4-3.5-7.7-7.4-11.5-11.1c-0.9-0.9-2.2,0.4-1.4,1.4
			c3.5,4.2,7.4,8,11.5,11.7c3.8,3.4,8.2,7.1,12.8,9.4C153.5,243.7,154,243.1,153.6,242.7L153.6,242.7z"/>
	</g>
	<g>
		<path class="st7" d="M160.7,232c-3.6-4.1-8-7.3-12.1-10.9c-2-1.7-4-3.4-6-5.3c-2-1.9-3.7-4.2-5.8-5.9c-0.7-0.6-1.9,0.1-1.4,1.1
			c1.3,2.3,3.6,4.3,5.5,6.1c2,1.9,4.1,3.8,6.2,5.5c4.3,3.4,8.5,7,12.9,10.3C160.6,233.2,161.1,232.4,160.7,232L160.7,232z"/>
	</g>
	<g>
		<path class="st7" d="M167.9,221.2c-1.9-1.7-4-3.1-6-4.6c-2.3-1.7-4.4-3.6-6.6-5.4c-4.1-3.5-8-7.2-11.6-11.2
			c-0.9-1-2.4,0.5-1.5,1.5c3.8,4,7.7,7.8,11.9,11.4c3.9,3.4,8.3,7,13,9.3C167.7,222.6,168.5,221.7,167.9,221.2L167.9,221.2z"/>
	</g>
	<g>
		<path class="st7" d="M167.5,206.3c-2.8-3-6-5.7-8.9-8.6c-2.9-3-5.4-6.3-8.2-9.3c-0.5-0.6-1.5,0.2-1.1,0.8c2.3,3.4,5.4,6.5,8.2,9.5
			c2.9,2.9,6,6,9.4,8.2C167.4,207.1,167.8,206.6,167.5,206.3L167.5,206.3z"/>
	</g>
	<g>
		<path class="st7" d="M344,336.1c1.2-2,1.8-4.3,2.7-6.5c0.9-2,2.2-3.8,2.8-5.9c0.2-0.6-0.6-1-1-0.6c-1.6,1.7-2.6,4.2-3.5,6.3
			c-0.9,2-1.9,4.2-2,6.4C343,336.4,343.7,336.6,344,336.1L344,336.1z"/>
	</g>
	<g>
		<path class="st7" d="M345.8,344.4c0.2,0,0.3,0,0.4-0.1c0.1,0,0.3-0.1,0.4-0.2c0.1-0.1,0.2-0.2,0.2-0.4c0.1-0.1,0.1-0.3,0.1-0.4
			c0-0.1,0-0.2,0-0.3c-0.1-0.2-0.1-0.4-0.3-0.5c-0.1-0.1-0.2-0.1-0.2-0.2c-0.2-0.1-0.4-0.2-0.6-0.2c-0.2,0-0.3,0-0.4,0.1
			c-0.1,0-0.3,0.1-0.4,0.2c-0.1,0.1-0.2,0.2-0.2,0.4c-0.1,0.1-0.1,0.3-0.1,0.4c0,0.1,0,0.2,0,0.3c0.1,0.2,0.1,0.4,0.3,0.5
			c0.1,0.1,0.2,0.1,0.2,0.2C345.4,344.3,345.6,344.4,345.8,344.4L345.8,344.4z"/>
	</g>
	<g>
		<path class="st7" d="M349,335.3c1.3,0,1.3-2,0-2C347.7,333.3,347.7,335.3,349,335.3L349,335.3z"/>
	</g>
	<g>
		<path class="st7" d="M351.8,341.5c1.3,0,1.3-2.1,0-2.1C350.4,339.5,350.4,341.5,351.8,341.5L351.8,341.5z"/>
	</g>
	<g>
		<path class="st7" d="M357,333c1.3,0,1.3-2.1,0-2.1C355.6,330.9,355.6,333,357,333L357,333z"/>
	</g>
	<g>
		<path class="st7" d="M352.7,325.3c1.2,0,1.2-1.9,0-1.9C351.5,323.4,351.5,325.3,352.7,325.3L352.7,325.3z"/>
	</g>
	<g>
		<path class="st7" d="M360.7,323.2C360.7,323.2,360.7,323.1,360.7,323.2c-0.2-0.1-0.2-0.1-0.3-0.1c-0.1,0-0.2,0-0.4,0
			c-0.1,0-0.2,0-0.2,0.1c-0.1,0-0.2,0.1-0.3,0.2c0,0.1-0.1,0.1-0.1,0.2c0,0.1-0.1,0.1-0.1,0.2c0,0.1,0,0.2,0,0.4
			c0,0.1,0,0.2,0.1,0.3c0,0,0,0.1,0,0.1c0.1,0.1,0.2,0.2,0.3,0.3c0.1,0.1,0.3,0.1,0.5,0.1c0.1,0,0.2,0,0.2,0c0.2,0,0.3-0.1,0.4-0.2
			c0.1-0.1,0.2-0.2,0.2-0.3c0.1-0.1,0.1-0.2,0.1-0.4C361.2,323.7,361,323.3,360.7,323.2L360.7,323.2z"/>
	</g>
	<g>
		<path class="st7" d="M358.8,318.2c1.2,0,1.2-1.9,0-1.9C357.6,316.3,357.6,318.2,358.8,318.2L358.8,318.2z"/>
	</g>
	<g>
		<path class="st10" d="M276.2,298.4c-1.8-0.1-3.8,1.6-5.2,2.6c-1.7,1.3-3.1,2.8-4.4,4.5c-2.7,3.5-4.3,7.5-4.8,11.8
			c-0.1,1.2,1.9,1.5,2.2,0.3c0.7-3.8,2.2-7.6,4.6-10.7c1.1-1.5,2.5-2.9,4-4.1c1.3-1.1,3.4-1.9,4.4-3.4
			C277.1,299,276.7,298.4,276.2,298.4L276.2,298.4z"/>
	</g>
	<g>
		<path class="st7" d="M362,338.4c3.1,1.8,5.6,4.3,8,6.9c0.9,1,2.6-0.3,1.8-1.4c-2.3-3.1-5.4-5.4-9-7.1
			C361.8,336.4,361,337.8,362,338.4L362,338.4z"/>
	</g>
	<g>
		<path class="st7" d="M357.5,346.9c4.1,3.6,7.8,7.6,11.9,11.1c0.8,0.7,2.2-0.2,1.5-1.2c-3.2-4.5-8-7.9-12.5-11.2
			C357.7,345.1,356.8,346.3,357.5,346.9L357.5,346.9z"/>
	</g>
	<g>
		<path class="st7" d="M380.6,355.1c3.1,3,5.6,6.5,8.6,9.6c1.1,1.1,3.1-0.3,2.2-1.7c-2.4-3.7-6.2-6.7-9.7-9.4
			C380.9,353,379.9,354.4,380.6,355.1L380.6,355.1z"/>
	</g>
	<g>
		<path class="st7" d="M383.4,342.1c2.1,1.9,4.2,3.8,6.1,5.9c1.9,2.1,3.7,4.3,5.9,6.1c1,0.9,2.9-0.3,2-1.5
			c-3.2-4.8-8.5-8.3-13.2-11.6C383.6,340.5,382.8,341.6,383.4,342.1L383.4,342.1z"/>
	</g>
	<g>
		<path class="st7" d="M363.1,327.2c3.6,1.8,7.6,4,10.5,6.9c1.1,1.1,2.9-0.6,1.7-1.7c-2.9-3.1-7.3-5.2-11.2-6.9
			C362.9,324.9,361.9,326.6,363.1,327.2L363.1,327.2z"/>
	</g>
	<g>
		<path class="st7" d="M381.5,372.4c6.9,6.9,12,15.3,18.6,22.4c0.8,0.8,2.1-0.2,1.6-1.2c-2.3-4.3-5.6-8-8.8-11.6
			c-3.2-3.7-6.5-7.5-10.1-10.8C381.9,370.4,380.7,371.6,381.5,372.4L381.5,372.4z"/>
	</g>
	<g>
		<path class="st7" d="M397.9,372.8c3.1,3.7,5.5,8.1,8.9,11.5c0.9,0.9,2.2-0.2,1.7-1.3c-1.9-4.5-6-8.1-9.4-11.3
			C398.3,370.8,397.2,372,397.9,372.8L397.9,372.8z"/>
	</g>
	<g>
		<path class="st7" d="M415.9,394c3.1,3.7,5.5,8.1,8.9,11.5c0.9,0.9,2.2-0.2,1.7-1.3c-1.9-4.5-6-8.1-9.4-11.3
			C416.3,392.1,415.2,393.2,415.9,394L415.9,394z"/>
	</g>
	<g>
		<path class="st7" d="M404.8,361.9c2.8,3.1,5.2,6.4,8.1,9.4c1,1,2.7-0.3,1.9-1.5c-2.4-3.5-5.6-6.4-8.7-9.2
			C405.2,359.7,403.9,361,404.8,361.9L404.8,361.9z"/>
	</g>
	<g>
		<path class="st7" d="M423.3,382c6.6,7,12.7,14.5,19.1,21.7c0.9,1,2.8-0.4,1.9-1.5c-2.9-3.9-6.2-7.4-9.6-10.9
			c-3.3-3.6-6.6-7.2-10.1-10.6C423.7,379.8,422.4,381.1,423.3,382L423.3,382z"/>
	</g>
	<g>
		<path class="st1" d="M148.4,287.8c2.1-2.1,3.9-4.7,5.7-7.1c2-2.5,3.9-5,5.9-7.5c1.9-2.4,3.8-4.8,5.7-7.1c1-1.2,1.9-2.4,2.9-3.5
			c1-1.3,1.7-1.7,1.9-3.3c0.1-0.9-1.1-1.7-1.9-1.4c-1.5,0.5-1.8,1.3-2.8,2.6c-0.8,1.1-1.7,2.2-2.6,3.4c-1.9,2.5-3.9,5-5.8,7.6
			c-1.8,2.4-3.6,4.9-5.4,7.4c-1.8,2.5-3.9,5.1-5.3,7.9C146.2,287.6,147.5,288.7,148.4,287.8L148.4,287.8z"/>
	</g>
	<g>
		<path class="st1" d="M178.9,247.9c2.1-2,3.5-4.9,5.3-7.2c1-1.3,2-2.6,3-3.8c0.9-1.1,2.3-2.2,2.9-3.5c0.5-1.2-0.6-2.6-1.9-1.9
			c-1.3,0.8-2.1,2.2-3,3.4c-1,1.3-2,2.6-2.9,3.9c-1.7,2.5-4,5.3-4.9,8.3C177.2,247.9,178.3,248.5,178.9,247.9L178.9,247.9z"/>
	</g>
	<g>
		<path class="st1" d="M216.8,190.1c9.9-4.9,19.8-9.9,30.9-11.6c10.1-1.6,20.4,0.1,29.7,4.2c17.1,7.5,30.3,22.9,32.9,41.7
			c1.5,10.8-0.5,22.2-6.3,31.5c-1.7,2.7,2.7,5.4,4.3,2.5c10.6-18.4,9.3-42-3.1-59.2c-11.8-16.4-32.6-27.2-53-25.5
			c-13.1,1.1-26.3,6.3-36.9,13.9C213.8,188.7,215.1,191,216.8,190.1L216.8,190.1z"/>
	</g>
	<g>
		<path class="st10" d="M213.9,187.4c0.4,4,2.2,7.5,4.3,10.9c2.1,3.4,4.5,6.7,6.9,9.9c4.8,6.3,10.1,12.3,15.8,17.8
			c11.7,11.2,25.2,21,40.1,27.4c8.4,3.6,17.4,6.5,26.6,6.8c1.4,0,1.3-1.9,0-2.1c-31-4.1-58.5-24.3-77.8-48.2
			c-2.8-3.5-5.4-7.1-7.9-10.8c-2.5-3.8-5-7.5-6.1-12C215.6,186.1,213.8,186.2,213.9,187.4L213.9,187.4z"/>
	</g>
	<path class="st14" d="M526.4,382.8h17.3c8.2-22.9,11.1-47.1,10.6-70.9l-30.5,0.4L526.4,382.8z"/>
	<path class="st4" d="M335.3,96.8c-11.9,11.9-19.8,32.4-15.9,66.9c0,0,8.4,52.1,56.5,53.4c0,0-6.5,47.9,44.4,76.6
		c0,0,24.6,17.2,63.4,5.2c0,0,14.2,30.6,56.7,32.1c0,0,5.8,0.2,13.6-1.4c3-56.6-15.9-113.4-31.2-148C486.1,99,413.2,81.6,335.3,96.8
		z"/>
	<circle class="st3" cx="390.3" cy="139.4" r="27.7"/>
	<circle class="st3" cx="444.9" cy="226.2" r="27.7"/>
	<path class="st3" d="M546.1,250.7c-2-0.3-4-0.5-6.1-0.3c-15.3,0.8-27,13.9-26.1,29.2c0.8,15.3,13.9,27,29.2,26.1
		c3.9-0.2,7.6-1.2,10.9-2.9C552.8,284.8,549.9,267.2,546.1,250.7z"/>
	<g>
		<path class="st10" d="M302.5,258.2c5.5-8.7,8.8-18.6,8.8-29c0-10.5-4.4-20.1-10.8-28.3c-12-15.5-30.8-25.6-50.7-23
			c-11.7,1.5-24.7,5.3-33.5,13.6c-0.9,0.8,0.3,2.4,1.3,1.7c8.3-6.3,17.5-10,27.7-12.1c9.9-2,19.7-1.5,29.1,2.3
			c8.5,3.5,16.1,9.1,22,16.1c6.3,7.3,12,16.9,12.8,26.6c0.4,5.4-0.3,10.8-1.7,16.1c-1.4,5.4-3.1,10.7-5.5,15.8
			C302,258.3,302.3,258.5,302.5,258.2L302.5,258.2z"/>
	</g>
</g>
</svg>
