<?xml version="1.0" encoding="utf-8"?>
<!-- Generator: Adobe Illustrator 24.0.0, SVG Export Plug-In . SVG Version: 6.00 Build 0)  -->
<svg version="1.1" id="Capa_1" xmlns="http://www.w3.org/2000/svg" xmlns:xlink="http://www.w3.org/1999/xlink" x="0px" y="0px"
	 viewBox="0 0 600 600" style="enable-background:new 0 0 600 600;" xml:space="preserve">
<style type="text/css">
	.st0{fill:#CED2D6;}
	.st1{fill:#FFE2CF;}
	.st2{fill:#333333;}
	.st3{fill:#FFFFFF;}
	.st4{clip-path:url(#SVGID_2_);fill:#FFD5BD;}
	.st5{fill:#5D9E9B;}
	.st6{fill:#5D9D9A;}
	.st7{fill:#212121;}
	.st8{fill:#FFC5B8;}
	.st9{fill:#FFFFFF;stroke:#222222;stroke-width:5.5331;stroke-miterlimit:10;}
	.st10{fill:#222222;}
	.st11{fill:#EAA29B;}
	.st12{fill:#F4B6AB;}
	.st13{fill:#FFEBC7;}
	.st14{fill:#5D4037;}
	.st15{fill:none;stroke:#5D4037;stroke-width:16.2558;stroke-linecap:round;stroke-miterlimit:10;}
	.st16{fill:#EAA42C;}
	.st17{fill:#DFA26F;}
	.st18{fill:#E4E6E8;}
	.st19{fill:#FFD56C;}
	.st20{fill:#DDAD7A;}
	.st21{fill:#F3A94A;}
	.st22{fill:#FFFFFF;stroke:#222222;stroke-width:2.3249;stroke-miterlimit:10;}
	.st23{fill:none;stroke:#5D4037;stroke-width:6.8303;stroke-linecap:round;stroke-miterlimit:10;}
	.st24{fill:#FFCFCF;}
	.st25{fill:none;stroke:#212121;stroke-width:5.2043;stroke-miterlimit:10;}
	.st26{fill:none;stroke:#212121;stroke-width:5.168;stroke-miterlimit:10;}
	.st27{fill:#FC8775;}
	.st28{clip-path:url(#SVGID_4_);fill:#FFD5BD;}
	.st29{fill:#FFEACC;}
	.st30{fill:#FFD86C;}
	.st31{fill:#77554D;}
	.st32{fill:#F9C953;}
	.st33{fill:#EFEFEF;}
	.st34{fill:#F7AB3E;}
	.st35{fill:#FFD0B6;}
	.st36{fill:none;stroke:#F7AB3E;stroke-width:11.5338;stroke-miterlimit:10;}
	.st37{fill:#D3965F;}
	.st38{fill:#7F5D57;}
	.st39{fill:#FFD6C2;}
	.st40{fill:none;stroke:#333333;stroke-width:6;stroke-miterlimit:10;}
	.st41{enable-background:new    ;}
	.st42{clip-path:url(#SVGID_6_);}
	.st43{fill:none;stroke:#5D4037;stroke-width:30.501;stroke-linecap:round;stroke-miterlimit:10;}
	.st44{fill:none;stroke:#5D4037;stroke-width:12.0648;stroke-linecap:round;stroke-miterlimit:10;}
	.st45{clip-path:url(#SVGID_8_);}
	.st46{fill:#EAEAEA;}
</style>
<path class="st0" d="M176.8,461C114.2,431.2,39.4,325.2,119,192.3c0,0,65.1-92.1,207.7-94.3c69.2-1,143.3,9.9,197.3,91.7
	c69.4,105.3,27.3,208.2-21.3,262.9S296.4,518,176.8,461z"/>
<path class="st1" d="M495.3,400.5l-75.6,2.8l8.1,87.4c32.8-7.7,59.4-20.7,74.9-38.1c1-1.2,2.1-2.4,3.1-3.6
	C501.2,417.9,495.3,400.5,495.3,400.5z"/>
<path class="st3" d="M233.6,496.7c0,0,28.8-78.4,41.3-204.6c0,0,42-27.3,121.1-15.4c0,0,37.1,185.5,39.9,225.4L233.6,496.7z"/>
<path class="st6" d="M419.7,492.5c0.3-67.6-26.7-218.3-26.7-218.3c-7.3-2.5-16.6-2.2-16.6-2.2c3.5,13,7.6,78,7.6,78l-85.9,1.8
	c-1.4-22.4-3.2-70.4-3.2-70.4c-7.1,1.9-13.7,5.5-13.7,5.5c0,100.2-23.6,164.8-32.1,198.8C310.1,501.6,369.3,502.8,419.7,492.5z"/>
<polyline class="st10" points="317.2,268.9 307.7,150.3 255.2,152.2 253.5,269.6 "/>
<path class="st10" d="M353.9,265.9c0,0,30.7-1.9,70.8-7.1c0,0-16.9-88.6-42.6-112.9h-38.3L353.9,265.9z"/>
<path class="st3" d="M395.9,276.6c0,0,84.2,16,105.7,127.4c0,0-29.9,19.3-79.1,14.2L395.9,276.6z"/>
<path class="st6" d="M260.4,156.2c0,0-7-37.3,26.1-46.2c0,0,30.8-9.3,63.9,0s41.5,48.7,41.5,48.7L260.4,156.2z"/>
<path class="st1" d="M260.4,156.2c0,0-3.3,74.2,28,91.5c0,0,16.3,7,20.1,30.8c0,0,25.7,23.3,58.3-1.9c0,0-9.2-38.9-17.6-118.7
	L260.4,156.2z"/>
<circle class="st1" cx="363.6" cy="192.3" r="14.5"/>
<g>
	<path class="st10" d="M292.8,211.8c1,3.1,3.5,6.1,7.1,5.6c3.7-0.5,4.4-4.5,3.9-7.5c-0.2-1.4-2.1-0.9-2.3,0.3
		c-0.2,1.9,0,4.9-2.6,5.1c-2.4,0.1-3.8-2.2-4.9-3.9C293.6,210.7,292.6,211.1,292.8,211.8L292.8,211.8z"/>
</g>
<g>
	<path class="st10" d="M267.3,172.6c2.4-1,4.5-2.7,7.2-3c2.8-0.3,5,0.8,7.4,2.1c2.5,1.3,5.2-1.9,3.1-4c-5.2-4.9-17.6-4.8-19.8,3.3
		C264.8,172.3,266.2,173.1,267.3,172.6L267.3,172.6z"/>
</g>
<g>
	<path class="st10" d="M304.6,170.2c2.6-0.5,4.8-2.1,7.6-2.3c3.1-0.3,6.1,0.8,8.3,2.9c2.5,2.2,6.2-1.4,3.7-3.7
		c-3.4-3-7.5-4.7-12-4.3c-3.6,0.4-7.9,2.2-9,6C302.9,169.7,303.7,170.3,304.6,170.2L304.6,170.2z"/>
</g>
<path class="st3" d="M327.1,157.3c0,0-59-26.3-100.6-20.2c0,0-33.2,4.4-16.8,19.1c0,0,10.8,8.8,32.6,6.6L327.1,157.3z"/>
<ellipse class="st10" cx="315.2" cy="175.7" rx="3.1" ry="3.9"/>
<ellipse class="st10" cx="275.8" cy="177.7" rx="3.1" ry="3.9"/>
<g>
	<path class="st10" d="M363.2,181.8c2.5,0.7,5,2,6.9,3.7c0.9,0.8,1.7,1.7,2.3,2.8c0.6,1,1,2.1,1.8,2.9c0.4,0.3,1.1,0.3,1.2-0.3
		c0.4-2.6-2.3-5.4-4.1-7c-2.4-2-4.9-3-8-3C362.8,180.9,362.7,181.7,363.2,181.8L363.2,181.8z"/>
</g>
<path class="st21" d="M326.5,195.7h-6.4c-1.9,0-3.4-1.5-3.4-3.4l0,0c0-1.9,1.5-3.4,3.4-3.4h6.4c1.9,0,3.4,1.5,3.4,3.4l0,0
	C329.9,194.2,328.4,195.7,326.5,195.7z"/>
<path class="st21" d="M273.6,195.7h-6.4c-1.9,0-3.4-1.5-3.4-3.4l0,0c0-1.9,1.5-3.4,3.4-3.4h6.4c1.9,0,3.4,1.5,3.4,3.4l0,0
	C277.1,194.2,275.5,195.7,273.6,195.7z"/>
<g>
	<path class="st10" d="M214.4,157.9c-3-2.4-8.3-5.4-7.1-10.2c1.2-4.8,8.1-6.4,12.1-7.5c7.8-2,15.9-2.8,23.9-2.5
		c16.1,0.6,32.1,2.4,47.4,7.7c1.4,0.5,1.9-1.6,0.6-2.1c-10.1-3.8-20.6-5.9-31.4-7c-10.2-1.1-20.7-1.9-30.9-0.5
		c-7,1-18.8,2.4-22.8,9.3c-3.7,6.2,2.4,11.6,7.8,13.5C214.4,158.8,214.8,158.2,214.4,157.9L214.4,157.9z"/>
</g>
<g>
	<path class="st10" d="M56.8,186.9c1.5-4.3,2.7-8.4,5.4-12.2c2.7-3.7,6.3-6.1,9.7-9c1-0.8-0.1-2.5-1.2-2.1
		c-8.6,2.7-16.4,14.1-16.3,23.1C54.4,188,56.4,188.1,56.8,186.9L56.8,186.9z"/>
</g>
<g>
	<path class="st10" d="M42.2,192.2c0.9-9.5,3.1-17.4,8.1-25.7c2.2-3.7,5-6.8,8.4-9.4c3.3-2.5,7-3.8,10.6-5.8
		c0.9-0.5,0.6-2.3-0.6-2.1c-8.5,0.8-16.4,8.2-20.8,15.1c-4.7,7.4-11.1,19.4-7.7,28.2C40.7,193.5,42.1,193.3,42.2,192.2L42.2,192.2z"
		/>
</g>
<g>
	<path class="st10" d="M424,417.8c-2.4-6.7-1.7-13.2-2.3-20.1c-0.5-6.4-2.1-12.5-4.6-18.3c-0.8-1.9-3.4-0.8-2.6,1.1
		c3,7.2,4.6,14.7,4.8,22.5c0.2,5.4,0.3,10.8,3.2,15.5C423,419.1,424.3,418.7,424,417.8L424,417.8z"/>
</g>
<g>
	<path class="st10" d="M287,172.5c0.8,4.6,2.4,8.9,2.9,13.6c0.2,2.3,0.3,4.7,0.3,7.1c-0.1,2.2-1,4.8-0.8,6.9
		c0.4,3.7,4.2,2.8,7.2,1.6c1.3-0.5,0.7-2.6-0.6-2.1c-1.8,0.7-3.6,1.9-4.8-1c-0.2-0.4,0.3-1.5,0.3-2c-0.1-3.3,0.8-6.4,0.5-9.7
		c-0.4-5-1.2-10.6-4-14.9C287.6,171.6,286.9,171.9,287,172.5L287,172.5z"/>
</g>
<path class="st1" d="M80.4,262.3c-7.1-21.4-11.5-64.6-11.5-64.6c-0.2-6,3.1-5.3,3.1-5.3c2.8-0.3,3.8,4.5,3.8,4.5s1.8,11.8,2.3,15
	c0.2,1.1,0.5,2.3,1.4,2.2s0.6-2.5,0.6-2.5L77.5,186c0,0-1.1-6.1,2.4-6.7c3.4-0.5,4.5,4.6,4.5,4.6l4,26.6c0,0,0.1,2.6,1.4,2.3
	c1-0.2,0.5-2.6,0.5-2.6s-2.8-26.5-2.8-29.8c-0.1-3.4-0.3-5.9,2.5-6.4c2.9-0.6,4.5,3.4,4.5,3.4l5.9,31.4c0,0,0.2,1.6,1.2,1.5
	c1-0.1,0.7-1.8,0.7-1.8l-2-20.4c0,0-0.8-6.3,2.6-6.7c3.5-0.4,4.7,4.9,4.7,4.9s4.4,28.7,10.6,41.5c2.1,4.2,2.9-2,2.9-2
	c-0.1-0.3,0.5-10.3,0.4-12.6c-0.1-4,0-5.8,2.7-6.1c3.6-0.4,4,5.2,4,5.2s3.3,27.3,7.6,38.7c0.4,1.1,1.5,3.2,1.9,4.2
	c16.7,35.7,36.1,65.1,89.3,57.3c0,0,14.4,49.8,7.2,85.9C234.2,398.3,113.3,407.1,80.4,262.3L80.4,262.3z"/>
<path class="st3" d="M267.1,396.6c0,0-41,8.5-60.9,5.2c0,0,3-27.6,8.6-94.7l65.9-18.3C280.8,288.9,276.9,365.8,267.1,396.6z"/>
</svg>
