<?xml version="1.0" encoding="utf-8"?>
<!-- Generator: Adobe Illustrator 24.0.0, SVG Export Plug-In . SVG Version: 6.00 Build 0)  -->
<svg version="1.1" id="Capa_1" xmlns="http://www.w3.org/2000/svg" xmlns:xlink="http://www.w3.org/1999/xlink" x="0px" y="0px"
	 viewBox="0 0 600 600" style="enable-background:new 0 0 600 600;" xml:space="preserve">
<style type="text/css">
	.st0{fill:#CED2D6;}
	.st1{fill:#FFFFFF;}
	.st2{clip-path:url(#SVGID_2_);fill:#FFD5BD;}
	.st3{fill:#EAA42C;}
	.st4{fill:#5D9E9B;}
	.st5{fill:#FFE2CF;}
	.st6{fill:#5D9D9A;}
	.st7{fill:#212121;}
	.st8{fill:#FFC5B8;}
	.st9{fill:#FFFFFF;stroke:#222222;stroke-width:5.5331;stroke-miterlimit:10;}
	.st10{fill:#222222;}
	.st11{fill:#EAA29B;}
	.st12{fill:#F4B6AB;}
	.st13{fill:#FFEBC7;}
	.st14{fill:#5D4037;}
	.st15{fill:none;stroke:#5D4037;stroke-width:16.2558;stroke-linecap:round;stroke-miterlimit:10;}
	.st16{fill:#DFA26F;}
	.st17{fill:#E4E6E8;}
	.st18{fill:#FFD56C;}
	.st19{fill:#F3A94A;}
	.st20{fill:#FFFFFF;stroke:#222222;stroke-width:2.3249;stroke-miterlimit:10;}
	.st21{fill:none;stroke:#5D4037;stroke-width:6.8303;stroke-linecap:round;stroke-miterlimit:10;}
	.st22{fill:#FFCFCF;}
	.st23{fill:none;stroke:#212121;stroke-width:5.2043;stroke-miterlimit:10;}
	.st24{fill:none;stroke:#212121;stroke-width:5.168;stroke-miterlimit:10;}
	.st25{fill:#333333;}
	.st26{fill:#FC8775;}
	.st27{clip-path:url(#SVGID_4_);fill:#FFD5BD;}
	.st28{fill:#FFEACC;}
	.st29{fill:#FFD86C;}
	.st30{fill:#77554D;}
	.st31{fill:#F9C953;}
	.st32{fill:#EFEFEF;}
	.st33{fill:#F7AB3E;}
	.st34{fill:#FFD0B6;}
	.st35{fill:none;stroke:#F7AB3E;stroke-width:11.5338;stroke-miterlimit:10;}
	.st36{fill:#DDAD7A;}
	.st37{fill:#D3965F;}
	.st38{fill:#7F5D57;}
	.st39{fill:#FFD6C2;}
	.st40{fill:none;stroke:#333333;stroke-width:4.7987;stroke-miterlimit:10;}
	.st41{enable-background:new    ;}
	.st42{clip-path:url(#SVGID_6_);}
	.st43{fill:none;stroke:#5D4037;stroke-width:30.501;stroke-linecap:round;stroke-miterlimit:10;}
	.st44{fill:none;stroke:#5D4037;stroke-width:12.0652;stroke-linecap:round;stroke-miterlimit:10;}
	.st45{clip-path:url(#SVGID_8_);}
	.st46{clip-path:url(#SVGID_10_);fill:none;stroke:#FFD86C;stroke-width:28.1136;stroke-miterlimit:10;}
	.st47{fill:#EAEAEA;}
</style>
<g>
	<path class="st0" d="M473,140.2c0,0,138.6,82.4,63,266.4S204.3,510.7,204.3,510.7s-205.8-59-84-309S473,140.2,473,140.2z"/>
	<g>
		<defs>
			<path id="SVGID_3_" d="M473,140.2c0,0,138.6,82.4,63,266.4S204.3,510.7,204.3,510.7s-205.8-59-84-309S473,140.2,473,140.2z"/>
		</defs>
		<clipPath id="SVGID_2_">
			<use xlink:href="#SVGID_3_"  style="overflow:visible;"/>
		</clipPath>
		<path class="st2" d="M76.1,330.5l139.3-3c36.3,1.5,59.6,4.2,62.8,4.1l14.2,2c0.1,0,0.2,0,0.3,0l37.5,6.2c3.4,0.5,6.7-1.6,7.5-5
			c0.9-3.6-1.2-7.3-4.8-8.2l-35-9.1v0c0,0-2.7-0.7-2.3-3.6c0.4-2.3,2.4-2.1,2.5-2.1l59,4.4c3.8,0.3,7.3-2.4,8-6.3
			c0.7-4.1-2.1-7.9-6.2-8.6l-58.7-9.4l0,0l0,0l-1.2-0.2c-0.8-0.3-1.7-0.9-1.6-2.4c0.1-1.9,1.7-2.5,2.5-2.7l63.7-4
			c3.8-0.2,6.8-3.3,6.9-7.2c0.1-4-3.1-7.4-7.2-7.4l-60.9-1.1l0,0c0,0-2.8-0.3-2.7-3.3c0.1-1.7,1.4-2.3,2.5-2.6l51.2-6.2
			c3.7-0.5,6.6-3.7,6.4-7.5c-0.1-4-3.5-7.2-7.6-7.1l-88.4,0l0,0c0,0,0,0,0,0l-0.8,0c-1.2,0-3.4-0.3-4.2-1.6c-1.4-2,1.5-3.6,1.5-3.6
			l0,0l26.9-12.5c3.5-1.7,5.3-5.9,4-9.6c-1.5-4-5.9-6.1-9.9-4.6c0,0-40.9,13.8-61.5,21l-129.5-6.9"/>
	</g>
	<g>
		<polygon class="st3" points="230.9,202.9 497.1,215.4 497.1,409.1 205.9,402.2 		"/>
	</g>
	<g>
		<polygon class="st3" points="213.1,409.1 230.9,202.9 157.8,252.6 157.8,456.2 		"/>
	</g>
	<g>
		<polygon class="st3" points="157.8,252.6 431,259.6 432.9,466.3 157.8,456.2 		"/>
	</g>
	<g>
		<polygon class="st3" points="497.1,409.1 497.1,215.4 432.9,249.8 432.9,466.3 		"/>
	</g>
	<g>
		<path class="st25" d="M433.2,466.4c2.7-7.7,1.5-16.9,1.5-25c0-8-0.1-15.8-0.2-23.8c-0.2-15.9-0.5-31.8-0.9-47.8
			c-0.7-35.8-1.8-71.8-1-107.5c0-2.2-3.4-2.2-3.4,0c0.1,35.9-0.2,71.7,0.5,107.5c0.2,15.9,0.6,31.8,1,47.8c0.1,8,0.2,15.8,0.4,23.8
			c0.1,8.1-1.1,17.3,1.6,25C432.6,466.8,433.1,466.8,433.2,466.4L433.2,466.4z"/>
	</g>
	<g>
		<path class="st25" d="M431.4,263.3c23.6-12.1,43.1-31.2,65.4-45.4c1.2-0.7,0.1-2.7-1.1-1.8c-22.3,14.5-44.7,29.3-65.5,45.7
			C429.2,262.4,430.4,263.8,431.4,263.3L431.4,263.3z"/>
	</g>
	<g>
		<path class="st25" d="M159.1,252.3c44,1.6,88.1,3.3,132,5.4c46.5,2.2,93.2,5.9,139.8,6.4c2.1,0,2-2.9,0-3.1
			c-46.5-3.4-93.2-4.8-139.8-6.7c-44-2-88.1-3.6-132-2.9C158.4,251.2,158.4,252.3,159.1,252.3L159.1,252.3z"/>
	</g>
	<g id="Capa_2_6_">
		<g id="Capa_1-2_5_">
			<g id="Capa_4_5_">
				<g id="Hoja_5_">
					<path class="st1" d="M309.9,412.7c-10.6-8-18.6-18.8-23.1-31.2l3.8-1.4c4.3,11.7,11.8,21.9,21.8,29.4L309.9,412.7z"/>
					<path id="_Trazado__5_" class="st1" d="M311.9,412.5l-1.5-2.8c-0.1-0.2,0-0.5,0.2-0.6c23-12.5,31.6-41.3,19.1-64.3
						c-1.9-3.5-4.2-6.7-6.9-9.6l-7-7.6c-0.2-0.2-0.2-0.4,0-0.6c0.1-0.1,0.3-0.2,0.5-0.1l2.8,1.6c0.2,0.1,0.5,0.1,0.6-0.1
						c0.1-0.1,0.1-0.3,0-0.4c-1.9-4.8-2.9-10-2.9-15.2c0-3.1,0.4-6.3,1.1-9.4c0.1-0.2-0.1-0.5-0.3-0.5c-0.1,0-0.2,0-0.3,0.1
						c-7.1,4.5-13.3,10.2-18.3,17.1c-8,11-12.3,24.2-12.2,37.8c0,0.7,0,1.4,0,2.1c0,0.3,0,0.5,0,0.8v0.6c0,0.3-0.2-0.1-0.5-0.1
						l-2.5-0.5c-0.1,0-0.1,0-0.1-0.1l-0.4-0.3c0-0.3-0.4-0.1-0.4-0.4c0-0.7,0-1.3,0-2.1c0-14.4,4.5-28.5,13-40.2
						c6.5-9,15.1-16.3,25-21.3l3.7-1.9c0.2-0.1,0.5,0,0.6,0.2c0.1,0.1,0.1,0.3,0,0.4l-1.6,3.9c-4.6,11.3-3.3,24.1,3.5,34.3l2.3,3.5
						c6.6,8.8,10.1,19.6,10.1,30.6c0,18.9-9.9,36.1-26.5,45.1C312.7,412.7,312,412.8,311.9,412.5z"/>
				</g>
				<g id="Brazos_5_">
					<g id="_Grupo__5_">
						<path id="_Trazado_2_5_" class="st1" d="M281.4,359.4l0.3,0.1c0.2,0.1,0.5,0.2,0.9,0.4c1.1,0.5,2.2,0.9,3.4,1.2
							c1.8,0.5,3.6,0.8,5.4,0.9c1.1,0.1,2.2,0,3.3-0.1c0.3,0,0.6-0.1,0.9-0.1c0.3,0,0.6-0.1,0.9-0.1l0.9-0.2
							c0.3-0.1,0.6-0.1,0.9-0.2c2.6-0.7,5.2-1.8,7.4-3.3c1.2-0.8,2.4-1.7,3.4-2.8c0.5-0.5,1.1-1.1,1.5-1.7c0.5-0.6,1-1.2,1.4-1.8
							c0.5-0.6,0.9-1.3,1.3-2c0.2-0.3,0.4-0.7,0.6-1c0.1-0.2,0.2-0.3,0.3-0.5l0.1-0.3c0.3-0.5,0.7-0.9,1.3-1
							c0.9-0.2,1.8,0.3,2.2,1.1c0.2,0.5,0.1,0.2,0.1,0.3v0l0,0.1c0.5,1.8,0.8,3.7,0.9,5.5c0,0.5,0,0.9,0,1.4v0.7l0,0.7
							c0,0.9-0.1,1.9-0.3,2.8c-0.3,1.9-0.8,3.7-1.4,5.6c-0.2,0.5-0.3,0.9-0.5,1.3l-0.6,1.3l-0.1,0.3l-0.1,0.1l-0.1,0.2l-0.4,0.7
							l-0.4,0.7c-0.1,0.1-0.1,0.2-0.2,0.3l-0.2,0.3l-0.8,1.2c-0.3,0.4-0.6,0.7-0.9,1.1c-0.1,0.2-0.3,0.4-0.5,0.5l-0.5,0.5l-0.5,0.5
							c-0.1,0.2-0.3,0.3-0.5,0.5c-1.3,1.3-2.8,2.5-4.3,3.5c-1.5,1-3.2,1.8-4.9,2.5c-0.4,0.1-0.9,0.3-1.3,0.4
							c-0.2,0.1-0.4,0.1-0.6,0.2l-0.6,0.2c-0.4,0.1-0.9,0.2-1.3,0.3c-0.4,0.1-0.9,0.1-1.3,0.2c-0.2,0-0.4,0.1-0.6,0.1
							c-0.2,0-0.4,0-0.6,0.1c-0.4,0-0.8,0.1-1.3,0.1c-0.4,0-0.8,0-1.3,0h-1l-0.3,0l-1.1-0.1c-0.2,0-0.4-0.1-0.6-0.1l-0.6-0.1
							c-0.8-0.1-1.6-0.3-2.3-0.4c-0.4-0.1-0.7-0.2-1.1-0.3c-0.3-0.1-0.7-0.2-1.1-0.3s-0.7-0.3-1-0.4c-0.2-0.1-0.3-0.1-0.5-0.2
							c-0.2-0.1-0.3-0.1-0.5-0.2c-2.3-1-4.4-2.4-6.3-4.1c-1.4-1.3-2.7-2.7-3.8-4.3c-0.4-0.6-0.8-1.2-1.1-1.8c-0.3-0.5-0.5-1-0.7-1.4
							c-0.3-0.8-0.5-1.2-0.5-1.2s0.3,0.4,0.7,1.1c0.7,1,1.5,1.9,2.3,2.8c1.3,1.3,2.6,2.5,4.1,3.6c1.9,1.3,4,2.4,6.2,3.2
							c0.1,0.1,0.3,0.1,0.5,0.2c0.2,0.1,0.3,0.1,0.5,0.1l0.9,0.3c0.3,0.1,0.7,0.1,1,0.2c0.3,0.1,0.7,0.1,1,0.2
							c0.7,0.1,1.4,0.2,2,0.2c0.2,0,0.3,0,0.5,0s0.3,0,0.5,0h1.7c0.2,0,0.4,0,0.5,0l1.1-0.1l1.1-0.2l0.5-0.1c0.2,0,0.4-0.1,0.5-0.1
							c0.4-0.1,0.7-0.2,1.1-0.3c0.3-0.1,0.7-0.2,1.1-0.3l0.5-0.2l0.5-0.2c0.3-0.1,0.7-0.3,1.1-0.4c0.7-0.3,1.4-0.6,2.1-1.1l0.5-0.3
							l0.3-0.1l0.3-0.2c0.3-0.2,0.7-0.4,1-0.7c0.3-0.2,0.6-0.5,0.9-0.7l0.5-0.4l0.5-0.4c0.3-0.3,0.6-0.5,0.9-0.8l0.9-0.9
							c0.1-0.1,0.3-0.3,0.4-0.5l0.4-0.5l0.4-0.5c0.1-0.1,0.3-0.3,0.4-0.5c0.2-0.3,0.5-0.7,0.7-1l0.7-1l0.2-0.3
							c0.1-0.1,0.1-0.2,0.1-0.3l0.3-0.5l0.3-0.5l0.1-0.1l0.1-0.1l0.1-0.3l0.5-1.1c0.2-0.4,0.3-0.8,0.5-1.1c1.1-3.1,1.7-6.4,1.6-9.6
							c-0.1-1.6-0.3-3.2-0.6-4.8l0-0.1v0c0,0.1-0.1-0.3,0.1,0.2c0.3,0.8,1.2,1.3,2.1,1.1c1-0.2,1.5-1.4,1.2-1l-0.2,0.3
							c-0.1,0.2-0.2,0.4-0.3,0.6c-0.2,0.4-0.5,0.8-0.7,1.2c-0.5,0.8-1,1.5-1.5,2.2c-1.1,1.4-2.3,2.7-3.6,3.8
							c-1.3,1.1-2.6,2.1-4.1,2.9c-2.6,1.5-5.5,2.6-8.5,3.1c-0.3,0.1-0.7,0.1-1,0.1c-0.3,0.1-0.7,0.1-1,0.1c-0.3,0-0.7,0.1-1,0.1h-1
							c-1.2,0-2.4-0.1-3.5-0.3c-1.9-0.3-3.8-0.9-5.5-1.7c-1.1-0.5-2.2-1.1-3.2-1.7c-0.3-0.2-0.6-0.4-0.8-0.5
							C281.5,359.5,281.5,359.4,281.4,359.4z"/>
					</g>
				</g>
				<path class="st1" d="M283.9,344.4c-4.1-3.1-7.2-8.3-8.8-14c-1.5-5.9-1.1-11.7,1.3-16c2.6-4.7,9.6-11.7,27.9-5.3l-1.3,3.8
					c-11.5-4-19.7-2.8-23.1,3.4c-3.9,7.1-0.7,19.5,6.4,25L283.9,344.4z"/>
				<g id="Cuerpo_5_">
					<path class="st1" d="M256.9,384.1c0-0.4,0-0.8,0-1.2c-0.2-6.6-0.5-17.7,9.2-29.4c0.3-0.3,0.5-0.6,0.7-0.9
						c0.3-0.4,0.7-0.8,1-1.2c8.8-10.7,9.1-12.3,9.5-14.2c0.1-0.6,0.2-1.1,0.4-1.7l3.8,1.1c-0.1,0.4-0.2,0.9-0.3,1.3
						c-0.5,2.9-1.3,5.1-10.3,16.1l0,0c-0.3,0.4-0.6,0.7-1,1.2c-0.3,0.3-0.5,0.6-0.8,0.9c-8.8,10.5-8.5,20.2-8.3,26.7
						c0,0.4,0,0.9,0,1.3L256.9,384.1z"/>
					<path class="st1" d="M295,416.9c-21.2,0-38.5-17.3-38.5-38.5c0-7.3,2.3-14.6,6.6-21.2l3.3,2.2c-3.9,5.9-6,12.5-6,19
						c0,19.1,15.5,34.5,34.5,34.5c4.6,0,9.1-0.9,13.4-2.7c0.9-0.4,1.8-0.8,2.6-1.2l1.8,3.5c-0.9,0.5-1.8,0.9-2.8,1.3
						C305.2,415.9,300.1,416.9,295,416.9z"/>
				</g>
			</g>
		</g>
	</g>
	<path class="st5" d="M52.1,303.3l93.3,8.9c20.6-7.2,61.5-21,61.5-21c4-1.5,8.5,0.6,9.9,4.6c1.4,3.8-0.4,7.9-4,9.6L186,318.1l0,0
		c0,0-2.9,1.6-1.5,3.6c0.9,1.3,3,1.5,4.2,1.6l0.8,0c0,0,0,0,0,0l0,0l88.4,0c4-0.1,7.4,3,7.6,7.1c0.1,3.8-2.7,7-6.4,7.5l-51.2,6.2
		c-1.1,0.3-2.5,0.9-2.5,2.6c-0.1,3,2.7,3.3,2.7,3.3l0,0l60.9,1.1c4,0.1,7.3,3.4,7.2,7.4c-0.1,3.8-3.1,6.9-6.9,7.2l-63.7,4
		c-0.8,0.2-2.5,0.8-2.5,2.7c0,1.5,0.9,2.2,1.6,2.4l1.2,0.2l0,0l0,0l58.7,9.4c4.1,0.7,6.9,4.5,6.2,8.6c-0.6,3.9-4.1,6.6-8,6.3
		l-59-4.4c0,0-2.1-0.2-2.5,2.1c-0.5,2.9,2.3,3.6,2.3,3.6v0l35,9.1c3.6,0.9,5.8,4.6,4.8,8.2c-0.9,3.4-4.2,5.5-7.5,5l-37.5-6.2
		c-0.1,0-0.2,0-0.3,0l-14.2-2c-3.1,0-26.4-2.6-62.8-4.1l-95.5-1.7C45.5,408.9,32.8,354,52.1,303.3z"/>
	<path class="st26" d="M330.8,132.4c-19.5-22.9-42.3-7-36.3,15.9c6,22.9,36.3,39.9,36.3,39.9s30.3-16.9,36.3-39.9
		C373.1,125.4,350.3,109.4,330.8,132.4z"/>
</g>
</svg>
